<svg xmlns="http://www.w3.org/2000/svg" viewBox="0 0 47 85" x="0px" y="0px"><path fill="#000000" fill-rule="evenodd" d="M708,437 L689,437 C686.238576,437 684,439.238576 684,442 L684,458 C684,460.761424 686.238576,463 689,463 L708,463 L708,467 L672,467 L672,433 L708,433 L708,437 Z M708,477.996513 C708,481.310988 705.320491,484 702.009821,484 L677.990179,484 C674.681188,484 672,481.308498 672,477.996513 L672,470 L708,470 L708,477.996513 Z M690,480 C691.656854,480 693,478.656854 693,477 C693,475.343146 691.656854,474 690,474 C688.343146,474 687,475.343146 687,477 C687,478.656854 688.343146,480 690,480 Z M672,430 L672,422.003487 C672,418.689012 674.679509,416 677.990179,416 L702.009821,416 C705.318812,416 708,418.691502 708,422.003487 L708,430 L672,430 Z M685,424.990631 C685,425.54809 685.455664,426 685.995398,426 L694.004602,426 C694.554345,426 695,425.556647 695,424.990631 L695,423.009369 C695,422.45191 694.544336,422 694.004602,422 L685.995398,422 C685.445655,422 685,422.443353 685,423.009369 L685,424.990631 Z M717,460 L689,460 C687.895431,460 687,459.104569 687,458 L687,442 C687,440.895431 687.895431,440 689,440 L717,440 C718.104569,440 719,440.895431 719,442 L719,458 C719,459.104569 718.104569,460 717,460 Z M697.940035,447.026519 C698.283392,446.597323 698.215537,445.97243 697.773553,445.618842 L696.226447,444.381158 C695.791145,444.032916 695.163326,444.09428 694.813262,444.53186 L691.438262,448.75061 C690.853913,449.481047 690.853913,450.518953 691.438262,451.24939 L694.813262,455.46814 C695.15844,455.899613 695.784463,455.97243 696.226447,455.618842 L697.773553,454.381158 C698.208855,454.032916 698.284837,453.404484 697.940035,452.973481 L695.56125,450 L697.940035,447.026519 Z M708.059965,452.973481 C707.716608,453.402677 707.784463,454.02757 708.226447,454.381158 L709.773553,455.618842 C710.208855,455.967084 710.836674,455.90572 711.186738,455.46814 L714.561738,451.24939 C715.146087,450.518953 715.146087,449.481047 714.561738,448.75061 L711.186738,444.53186 C710.84156,444.100387 710.215537,444.02757 709.773553,444.381158 L708.226447,445.618842 C707.791145,445.967084 707.715163,446.595516 708.059965,447.026519 L710.43875,450 L708.059965,452.973481 Z M702.971394,455.194279 C703.518027,455.303605 704.047099,454.962545 704.156571,454.415183 L705.765751,446.369282 C705.873673,445.829672 705.526418,445.305284 704.971394,445.194279 L703.028606,444.805721 C702.481973,444.696395 701.952901,445.037455 701.843429,445.584817 L700.234249,453.630718 C700.126327,454.170328 700.473582,454.694716 701.028606,454.805721 L702.971394,455.194279 Z" transform="translate(-672 -416)"/></svg>