<svg xmlns="http://www.w3.org/2000/svg" viewBox="0 0 64 80" x="0px" y="0px"><g data-name="C++"><path d="M59,10H5a1,1,0,0,0-1,1v7H60V11A1,1,0,0,0,59,10ZM9,15a1,1,0,1,1,1-1A1,1,0,0,1,9,15Zm4,0a1,1,0,1,1,1-1A1,1,0,0,1,13,15Zm4,0a1,1,0,1,1,1-1A1,1,0,0,1,17,15Zm38,0H33a1,1,0,0,1,0-2H55a1,1,0,0,1,0,2ZM4,53a1,1,0,0,0,1,1H59a1,1,0,0,0,1-1V20H4ZM43,36h3V33a1,1,0,0,1,2,0v3h3a1,1,0,0,1,0,2H48v3a1,1,0,0,1-2,0V38H43a1,1,0,0,1,0-2ZM31,36h3V33a1,1,0,0,1,2,0v3h3a1,1,0,0,1,0,2H36v3a1,1,0,0,1-2,0V38H31a1,1,0,0,1,0-2ZM12,31a6.0066,6.0066,0,0,1,6-6h4a6.0066,6.0066,0,0,1,6,6v1a1,1,0,0,1-2,0V31a4.0042,4.0042,0,0,0-4-4H18a4.0042,4.0042,0,0,0-4,4V43a4.0042,4.0042,0,0,0,4,4h4a4.0042,4.0042,0,0,0,4-4V42a1,1,0,0,1,2,0v1a6.0066,6.0066,0,0,1-6,6H18a6.0066,6.0066,0,0,1-6-6Z"/></g></svg>