<svg xmlns="http://www.w3.org/2000/svg" viewBox="0 0 64 80" x="0px" y="0px"><path d="m27,36h-5v2h5c1.09998,0,2,.89996,2,2v11.60999l-8.39001,8.39001h-9.60999c-1.09998,0-2-.90002-2-2v-18c0-1.10004.90002-2,2-2h5v-2h-5c-2.21002,0-4,1.78998-4,4v18c0,2.20996,1.78998,4,4,4h16c2.20557,0,4-1.79395,4-4v-18c0-2.21002-1.78998-4-4-4Z"/><path d="m53,36h-5v2h5c1.09998,0,2,.89996,2,2v11.60999l-8.39001,8.39001h-9.60999c-1.09998,0-2-.90002-2-2v-18c0-1.10004.90002-2,2-2h5v-2h-5c-2.21002,0-4,1.78998-4,4v18c0,2.20996,1.78998,4,4,4h16c2.20557,0,4-1.79395,4-4v-18c0-2.21002-1.78998-4-4-4Z"/><path d="m35.14893,34h6.85107c1.10303,0,2,.89746,2,2v3c.02069,1.31238,1.97839,1.3158,2-.00006,0,.00006,0-2.99994,0-2.99994,0-2.20605-1.79443-4-4-4h-6.55054c-.19647-1.3551-1.16498-2.45026-2.44946-2.83679v-1.16321h7c2.20557,0,4-1.79443,4-4V6c0-2.20557-1.79443-4-4-4h-16c-2.20557,0-4,1.79443-4,4v18c0,2.20557,1.79443,4,4,4h7v1.16321c-1.28448.38654-2.25299,1.48169-2.44946,2.83679h-6.55054c-2.20557,0-4,1.79395-4,4v3c.0224,1.31311,1.97742,1.31567,2-.00006,0,.00006,0-2.99994,0-2.99994,0-1.10254.89697-2,2-2h6.85107c1.17767,2.633,5.12091,2.63177,6.29785,0Zm6.85107-13.56006v3.56006c0,1.10303-.89697,2-2,2h-3.56006l5.56006-5.56006ZM25,7h14c1.31006.021,1.31781,1.97736-.00006,2,.00006,0-13.99994,0-13.99994,0-1.31006-.021-1.31781-1.97742,0-2Zm0,4h14c1.31006.021,1.31781,1.97736-.00006,2,.00006,0-13.99994,0-13.99994,0-1.31006-.021-1.31781-1.97742,0-2Zm-1,5c0-.55225.44775-1,1-1h14c.55225,0,1,.44775,1,1s-.44775,1-1,1h-14c-.55225,0-1-.44775-1-1Zm4,5c-1.31201-.02161-1.31622-1.9776.00006-2-.00006,0,7.99994,0,7.99994,0,1.31201.02161,1.31622,1.97754-.00006,2,.00006,0-7.99994,0-7.99994,0Z"/><path d="m26,41h-14c-1.31012.02063-1.31787,1.97772.00006,2-.00006,0,13.99994,0,13.99994,0,1.31012-.02063,1.31787-1.97778,0-2Z"/><path d="m26,47c1.31012-.02063,1.31787-1.97778,0-2h-14c-1.31012.02063-1.31787,1.97772.00006,2-.00006,0,13.99994,0,13.99994,0Z"/><path d="m27,50c0-.55273-.44775-1-1-1h-14c-.55225,0-1,.44727-1,1s.44775,1,1,1h14c.55225,0,1-.44727,1-1Z"/><path d="m15,53c-1.31207.02124-1.31628,1.97791.00006,2-.00006,0,7.99994,0,7.99994,0,.55225,0,1-.44727,1-1s-.44775-1-1-1h-8Z"/><path d="m52,41h-14c-1.31012.02063-1.31787,1.97772.00006,2-.00006,0,13.99994,0,13.99994,0,1.31012-.02063,1.31787-1.97778,0-2Z"/><path d="m52,47c1.31012-.02063,1.31787-1.97778,0-2h-14c-1.31012.02063-1.31787,1.97772.00006,2-.00006,0,13.99994,0,13.99994,0Z"/><path d="m53,50c0-.55273-.44775-1-1-1h-14c-.55225,0-1,.44727-1,1s.44775,1,1,1h14c.55225,0,1-.44727,1-1Z"/><path d="m41,53c-1.31207.02124-1.31628,1.97791.00006,2-.00006,0,7.99994,0,7.99994,0,.55225,0,1-.44727,1-1s-.44775-1-1-1h-8Z"/></svg>