<svg xmlns="http://www.w3.org/2000/svg" viewBox="0 0 128 160" x="0px" y="0px"><g data-name="Solid"><path d="M114.5,2.25H13.5A11.263,11.263,0,0,0,2.25,13.5V27.75h123.5V13.5A11.263,11.263,0,0,0,114.5,2.25Zm-99,17a3.75,3.75,0,1,1,3.75-3.75A3.755,3.755,0,0,1,15.5,19.25Zm16,0a3.75,3.75,0,1,1,3.75-3.75A3.755,3.755,0,0,1,31.5,19.25Zm16,0a3.75,3.75,0,1,1,3.75-3.75A3.755,3.755,0,0,1,47.5,19.25Zm64,0h-16a3.75,3.75,0,0,1,0-7.5h16a3.75,3.75,0,0,1,0,7.5Z"/><circle cx="47.5" cy="15.5" r="2.25"/><path d="M111.5,13.25h-16a2.25,2.25,0,0,0,0,4.5h16a2.25,2.25,0,0,0,0-4.5Z"/><circle cx="15.5" cy="15.5" r="2.25"/><path d="M2.25,100.5A11.263,11.263,0,0,0,13.5,111.75H29.75V59.571a6.868,6.868,0,0,1,2.015-4.81L44.031,42.689a6.71,6.71,0,0,1,4.736-1.939H91.5a6.758,6.758,0,0,1,6.75,6.75v64.25H114.5a11.263,11.263,0,0,0,11.25-11.25V29.25H2.25Z"/><circle cx="31.5" cy="15.5" r="2.25"/><path d="M31.25,120.5a5.256,5.256,0,0,0,5.25,5.25h55a5.256,5.256,0,0,0,5.25-5.25v-73a5.256,5.256,0,0,0-5.25-5.25H48.767c-.176,0-.345.033-.517.05V56.5a3.755,3.755,0,0,1-3.75,3.75H31.25ZM76.039,87.75h-2a5.75,5.75,0,1,1,0-11.5h3A4.756,4.756,0,0,1,81.789,81a.75.75,0,0,1-1.5,0,3.254,3.254,0,0,0-3.25-3.25h-3a4.25,4.25,0,1,0,0,8.5h2a5.75,5.75,0,0,1,0,11.5h-3A4.756,4.756,0,0,1,68.289,93a.75.75,0,0,1,1.5,0,3.254,3.254,0,0,0,3.25,3.25h3a4.25,4.25,0,0,0,0-8.5Zm-29.078,2.5a.75.75,0,0,1,.75.75,5.25,5.25,0,0,0,10.5,0V77a.75.75,0,0,1,1.5,0V91a6.75,6.75,0,0,1-13.5,0A.75.75,0,0,1,46.961,90.25Z"/><path d="M46.75,56.5V42.653a5.218,5.218,0,0,0-1.666,1.105L32.817,55.829a5.276,5.276,0,0,0-1.484,2.921H44.5A2.253,2.253,0,0,0,46.75,56.5Z"/></g></svg>