<svg xmlns="http://www.w3.org/2000/svg" xmlnsXlink="http://www.w3.org/1999/xlink" xmlnsSerif="http://www.serif.com/" viewBox="0 0 100 126.25" version="1.1" xmlSpace="preserve" style="" x="0px" y="0px" fill-rule="evenodd" clip-rule="evenodd" stroke-linejoin="round" stroke-miterlimit="2"><rect serifId="Page 98" x="0" y="0.5" width="100" height="100" style="" fill="none"/><path d="M15.024,26.492c0,0 37.421,-21.602 37.421,-21.602l32.531,18.782l0.003,6.97l6.026,3.476l0.003,0.001c0,0 -0.003,43.209 -0.003,43.209l-32.531,18.782l-6.037,-3.483l-6.024,3.481l0,0l-0.003,0.002c0,0 -37.418,-21.607 -37.418,-21.607l0,-37.564l6.035,-3.487l0,-0.001l-0.003,-6.956l0,0l0,-0.003Zm39.046,55.512l0.001,7.817l4.396,2.542l29.289,-16.911l0.001,-7.815l-29.283,16.907l-4.404,-2.54Zm-3.254,-26.006l-4.127,-2.379l-4.4,2.536l0,33.821l4.124,2.381l4.4,-2.54l0.003,-33.819l0,0Zm-7.373,-4.255l-6.771,-3.907l-4.399,2.536l0,33.821l6.768,3.909l0,-33.814l4.402,-2.545Zm-10.017,-5.782l-6.77,-3.908l-4.399,2.537l0,33.82l6.768,3.909l-0.001,-33.814l4.402,-2.544Zm20.644,24.477l0.001,7.817l4.396,2.542l29.289,-16.91l0.001,-7.816l-29.283,16.907l-4.404,-2.54Zm-30.66,-30.26l-6.77,-3.908l-4.4,2.537l0.001,33.82l6.767,3.908l0,-33.813l4.402,-2.544Zm30.659,18.694l0.002,7.817l4.396,2.542l29.289,-16.91l0.002,-7.816l-29.284,16.908l-4.405,-2.541Zm-0.002,-8.513l0.004,4.765l4.396,2.542l29.289,-16.911l0.001,-4.762l-4.4,-2.54l-29.29,16.906l0,0Zm-3.26,1.881l0.01,0.006l0,-0.012l-0.01,0.006Zm-32.535,-23.87l0,5.081l29.286,16.912l4.125,-2.385l0.003,-5.078l-29.289,-16.91l-4.125,2.38Zm7.371,-4.257l29.285,16.908l0.002,5.084l6.769,-3.91l0.003,-5.078l-29.289,-16.91l-6.77,3.906Zm10.017,-5.782l29.284,16.907l0.002,5.084l6.769,-3.91l0.001,-1.174l0.002,-3.904l-29.289,-16.91l-6.769,3.907Zm10.017,-5.783l29.283,16.907l0.002,5.084l6.769,-3.909l0.004,-5.079l-29.29,-16.91l-6.768,3.907Z"/></svg>