<svg xmlns="http://www.w3.org/2000/svg" xmlns:xlink="http://www.w3.org/1999/xlink" version="1.1" x="0px" y="0px" viewBox="0 0 64 80" style="enable-background:new 0 0 64 64;" xml:space="preserve"><g><path d="M20.7998047,44.7998047v-5h5C27.0131836,39.7998047,28,38.8125,28,37.5996094v-7.199707   c0-1.2128906-0.9868164-2.199707-2.2001953-2.199707H21c-0.0685425,0-0.1332397,0.0140991-0.2001953,0.0202637v-5.0202637   C20.7998047,21.9868164,19.8129883,21,18.6000977,21h-7.2001953c-1.2128906,0-2.199707,0.9868164-2.199707,2.2001953v5h-5   C2.9868164,28.2001953,2,29.1870117,2,30.3999023v7.199707c0,1.2128906,0.9868164,2.2001953,2.2001953,2.2001953H9   c0.0685425,0,0.1332397-0.0140991,0.2001953-0.0202637v5.0202637C9.2001953,46.0126953,10.1870117,47,11.3999023,47h7.2001953   C19.8129883,47,20.7998047,46.0126953,20.7998047,44.7998047z M9.2001953,35.2001953v2.3994141   c0,0.1103516-0.0898438,0.2001953-0.2001953,0.2001953H4.2001953C4.0898438,37.7998047,4,37.7099609,4,37.5996094v-7.199707   c0-0.1103516,0.0898438-0.199707,0.2001953-0.199707H15c0.5522461,0,1-0.4477539,1-1s-0.4477539-1-1-1h-3.7998047v-5   C11.2001953,23.0898438,11.2895508,23,11.3999023,23h7.2001953c0.1103516,0,0.199707,0.0898438,0.199707,0.2001953v6   c0,0.173584,0.0559082,0.3287354,0.133728,0.4710083c-0.0811768,0.229248-0.133728,0.4720459-0.133728,0.7286987v2.3999023   C18.7998047,32.9101562,18.7104492,33,18.6000977,33h-7.2001953C10.1870117,33,9.2001953,33.9873047,9.2001953,35.2001953z    M11.2001953,44.7998047v-6c0-0.1737671-0.0559692-0.3290405-0.1337891-0.4713135   c0.0812378-0.2293091,0.1337891-0.472168,0.1337891-0.7288818v-2.3994141C11.2001953,35.0898438,11.2895508,35,11.3999023,35   h7.2001953c1.2128906,0,2.199707-0.9873047,2.199707-2.2001953v-2.3999023c0-0.1103516,0.0898438-0.199707,0.2001953-0.199707   h4.7998047C25.9101562,30.2001953,26,30.2895508,26,30.3999023v7.199707c0,0.1103516-0.0898438,0.2001953-0.2001953,0.2001953H15   c-0.5522461,0-1,0.4472656-1,1s0.4477539,1,1,1h3.7998047v5C18.7998047,44.9101562,18.7104492,45,18.6000977,45h-7.2001953   C11.2895508,45,11.2001953,44.9101562,11.2001953,44.7998047z"/><path d="M59,9H15c-1.6500244,0-3,1.3499756-3,3v5h2v-5c0-0.5499878,0.4500122-1,1-1h44c0.5499878,0,1,0.4500122,1,1v5H18.5999756   c1.8000488,0,3.4200439,0.7699585,4.5400391,2c1.0299683,1.0999756,1.6599731,2.5799561,1.6599731,4.2000122v1h1   C29.2199707,24.2000122,32,26.9799805,32,30.3999634v7.2000122c0,3.4199829-2.7800293,6.2000122-6.2000122,6.2000122h-1v1   C24.7999878,48.2199707,22.0200195,51,18.5999756,51H14h-2v1c0,1.6499634,1.3499756,3,3,3h44c1.6500244,0,3-1.3500366,3-3V12   C62,10.3499756,60.6500244,9,59,9z M44.1099854,28.5499878l2-4c0.2399902-0.4899902,0.8400269-0.6900024,1.3400269-0.4400024   c0.4899902,0.2399902,0.6900024,0.8400269,0.4400024,1.3400269l-2,4C45.7199707,29.7999878,45.3699951,30,45,30   c-0.1500244,0-0.2999878-0.0300293-0.4500122-0.1099854C44.0599976,29.6499634,43.8599854,29.0499878,44.1099854,28.5499878z    M37.289978,26.289978l4-4c0.3900146-0.3900146,1.0300293-0.3900146,1.4200439,0   c0.3899536,0.3900146,0.3899536,1.0300293,0,1.4199829L39.4099731,27l3.3000488,3.289978   c0.3899536,0.3900146,0.3899536,1.0300293,0,1.4199829C42.5100098,31.8999634,42.2600098,32,42,32   s-0.5100098-0.1000366-0.710022-0.2900391l-4-4C36.9000244,27.3200073,36.9000244,26.6799927,37.289978,26.289978z M37,36h10   c0.5499878,0,1,0.4500122,1,1s-0.4500122,1-1,1H37c-0.5499878,0-1-0.4500122-1-1S36.4500122,36,37,36z M40,50h-3   c-0.5499878,0-1-0.4500122-1-1s0.4500122-1,1-1h3c0.5499878,0,1,0.4500122,1,1S40.5499878,50,40,50z M54,50H44   c-0.5499878,0-1-0.4500122-1-1s0.4500122-1,1-1h10c0.5499878,0,1,0.4500122,1,1S54.5499878,50,54,50z M54,44H37   c-0.5499878,0-1-0.4500122-1-1s0.4500122-1,1-1h17c0.5499878,0,1,0.4500122,1,1S54.5499878,44,54,44z M54,38h-3   c-0.5499878,0-1-0.4500122-1-1s0.4500122-1,1-1h3c0.5499878,0,1,0.4500122,1,1S54.5499878,38,54,38z M54.710022,27.7099609l-4,4   C50.5100098,31.8999634,50.2600098,32,50,32s-0.5100098-0.1000366-0.710022-0.2900391   c-0.3899536-0.3899536-0.3899536-1.0299683,0-1.4199829L52.5900269,27l-3.3000488-3.2900391   c-0.3899536-0.3899536-0.3899536-1.0299683,0-1.4199829c0.3900146-0.3900146,1.0300293-0.3900146,1.4200439,0l4,4   C55.0999756,26.6799927,55.0999756,27.3200073,54.710022,27.7099609z"/><path d="M16.6196289,14.9199219C16.7397461,14.9697266,16.8696289,15,17,15c0.1298828,0,0.2597656-0.0302734,0.3798828-0.0800781   c0.1298828-0.050293,0.2299805-0.1201172,0.3300781-0.2099609c0.0898438-0.1000977,0.159668-0.2099609,0.2099609-0.3300781   C17.9799805,14.2597656,18,14.1298828,18,14c0-0.1303711-0.0200195-0.2602539-0.0800781-0.3803711   c-0.050293-0.1196289-0.1201172-0.2299805-0.2099609-0.3295898C17.6098633,13.199707,17.5,13.1298828,17.3798828,13.0795898   c-0.3598633-0.159668-0.8100586-0.0698242-1.0898438,0.2104492C16.199707,13.3896484,16.1298828,13.5,16.0795898,13.6196289   C16.0297852,13.7397461,16,13.8696289,16,14c0,0.1298828,0.0297852,0.2597656,0.0795898,0.3798828   c0.050293,0.1201172,0.1201172,0.2299805,0.2104492,0.3300781C16.3896484,14.7998047,16.5,14.8696289,16.6196289,14.9199219z"/><path d="M20.4399414,14.8295898c0.0600586,0.0400391,0.1201172,0.0703125,0.1796875,0.090332   c0.0600586,0.0297852,0.1201172,0.0498047,0.1801758,0.0600586C20.8696289,14.9897461,20.9296875,15,21,15   c0.1298828,0,0.2597656-0.0302734,0.3798828-0.0800781c0.1298828-0.050293,0.2299805-0.1201172,0.3300781-0.2099609   C21.8896484,14.5200195,22,14.2597656,22,14c0-0.2602539-0.1103516-0.5200195-0.2900391-0.7099609   c-0.1000977-0.090332-0.2001953-0.1601562-0.3300781-0.2104492C21.199707,13,21,12.9799805,20.7998047,13.0200195   c-0.0600586,0.0097656-0.1201172,0.0297852-0.1801758,0.0595703c-0.0595703,0.0200195-0.1196289,0.050293-0.1796875,0.090332   c-0.050293,0.0400391-0.1000977,0.0800781-0.1499023,0.1201172C20.199707,13.3896484,20.1298828,13.5,20.0795898,13.6196289   C20.0297852,13.7397461,20,13.8696289,20,14c0,0.1298828,0.0297852,0.2597656,0.0795898,0.3798828   c0.050293,0.1201172,0.1201172,0.2299805,0.2104492,0.3300781C20.3398438,14.75,20.3896484,14.7998047,20.4399414,14.8295898z"/><path d="M24.4399414,14.8295898c0.0600586,0.0400391,0.1201172,0.0703125,0.1796875,0.090332   c0.0600586,0.0297852,0.1201172,0.0498047,0.1801758,0.0600586C24.8696289,14.9897461,24.9296875,15,25,15   c0.1298828,0,0.2597656-0.0302734,0.3798828-0.0800781c0.1298828-0.050293,0.2299805-0.1201172,0.3300781-0.2099609   C25.8896484,14.5200195,26,14.2597656,26,14c0-0.1303711-0.0302734-0.2602539-0.0800781-0.3803711   c-0.050293-0.1196289-0.1201172-0.2299805-0.2099609-0.3295898c-0.1000977-0.090332-0.2001953-0.1601562-0.3300781-0.2104492   C25.199707,13,25,12.9799805,24.7998047,13.0200195c-0.0600586,0.0097656-0.1201172,0.0297852-0.1801758,0.0595703   c-0.0595703,0.0200195-0.1196289,0.050293-0.1796875,0.090332c-0.050293,0.0400391-0.1000977,0.0800781-0.1499023,0.1201172   C24.199707,13.3896484,24.1298828,13.5,24.0795898,13.6196289C24.0297852,13.7397461,24,13.8696289,24,14   c0,0.1298828,0.0297852,0.2597656,0.0795898,0.3798828c0.050293,0.1201172,0.1201172,0.2299805,0.2104492,0.3300781   C24.3398438,14.75,24.3896484,14.7998047,24.4399414,14.8295898z"/></g></svg>