<svg xmlns="http://www.w3.org/2000/svg" data-name="Layer 1" viewBox="0 0 95 118.75" x="0px" y="0px"><defs><style>.cls-1{fill-rule:evenodd;}</style></defs><title>a</title><path class="cls-1" d="M66.268,36.67A94.943,94.943,0,0,1,77.5,45.938,49.539,49.539,0,0,0,84.4,37.2C87.323,32.315,88.208,28,86.474,25c-2.257-3.909-8.589-5.086-17-3.829-1.791.268-3.67.647-5.621,1.134A95,95,0,0,1,66.268,36.67Zm-16.15-9.594a90.728,90.728,0,0,1,11.6-4.2,90.733,90.733,0,0,1,2.157,12.146q-3.222-2.164-6.745-4.2c-2.345-1.354-4.689-2.6-7.012-3.741ZM33.855,20.742A94.913,94.913,0,0,1,47.5,25.834a94.893,94.893,0,0,1,13.643-5.092c-.553-1.936-1.166-3.756-1.83-5.442C56.2,7.391,52.014,2.5,47.5,2.5c-3.47,0-6.762,2.921-9.525,7.892a49.553,49.553,0,0,0-4.12,10.35ZM47.5,69.166a94.893,94.893,0,0,1-13.643,5.092c.553,1.936,1.166,3.756,1.83,5.442,3.115,7.909,7.3,12.8,11.813,12.8,3.471,0,6.762-2.921,9.525-7.892a49.553,49.553,0,0,0,4.12-10.35A94.913,94.913,0,0,1,47.5,69.166ZM31.125,59.981q3.222,2.163,6.745,4.2c2.345,1.354,4.689,2.6,7.013,3.741a90.837,90.837,0,0,1-11.6,4.2,90.6,90.6,0,0,1-2.158-12.146ZM17.505,49.063a49.5,49.5,0,0,0-6.9,8.742C7.677,62.685,6.792,67,8.526,70c2.257,3.909,8.588,5.086,17,3.829,1.792-.268,3.671-.647,5.622-1.134A95,95,0,0,1,28.732,58.33a95.136,95.136,0,0,1-11.227-9.267ZM32.591,34.469a3.967,3.967,0,1,0,1.161,2.8,3.954,3.954,0,0,0-1.161-2.8ZM25.578,41.8a6.168,6.168,0,0,0,2.732,1.478q-.027.789-.045,1.614-.033,1.484-.033,2.612c0,2.707.092,5.36.267,7.942A90.6,90.6,0,0,1,19.064,47.5c1.961-1.907,4.141-3.82,6.514-5.7ZM29.4,31.107a6.182,6.182,0,0,0-5.151,8.917A88.794,88.794,0,0,0,17.5,45.937q-2.1-2.17-3.8-4.3C8.415,34.977,6.269,28.905,8.526,25s8.587-5.083,17-3.825c1.791.268,3.671.647,5.622,1.134a89.076,89.076,0,0,0-1.745,8.8ZM34.245,33l-.089-.091a6.173,6.173,0,0,0-2.558-1.54c.446-3,1.012-5.841,1.683-8.492a90.793,90.793,0,0,1,11.6,4.2c-2.323,1.14-4.667,2.388-7.011,3.741h0q-1.132.654-2.25,1.332-.7.425-1.375.847ZM68.017,54.923a3.965,3.965,0,1,0,1.161,2.8,3.952,3.952,0,0,0-1.161-2.8ZM60.755,62l.089.091a6.183,6.183,0,0,0,2.558,1.54c-.446,3-1.012,5.84-1.683,8.492a90.653,90.653,0,0,1-11.6-4.2c2.324-1.139,4.667-2.387,7.011-3.74h0q1.132-.654,2.25-1.332.7-.425,1.375-.847ZM64.487,51.59a6.182,6.182,0,0,0-4.951,8.577q-.648.407-1.3.8-1.078.655-2.2,1.3l-.011.006c-2.858,1.65-5.714,3.14-8.529,4.462-2.816-1.323-5.672-2.813-8.532-4.463S33.4,58.9,30.845,57.121c-.262-3.1-.4-6.319-.4-9.621q0-1.482.024-2.569.017-.75.044-1.522a6.181,6.181,0,0,0,4.951-8.576q.648-.407,1.3-.8,1.078-.655,2.2-1.3l.011-.006c2.858-1.651,5.714-3.14,8.529-4.463,2.816,1.324,5.672,2.813,8.531,4.464S61.6,36.1,64.155,37.878c.262,3.1.4,6.32.4,9.622q0,1.482-.024,2.569-.017.75-.044,1.521ZM69.422,53.2a6.166,6.166,0,0,0-2.733-1.478q.029-.789.046-1.614.033-1.484.033-2.612c0-2.707-.092-5.361-.267-7.943A90.607,90.607,0,0,1,75.936,47.5c-1.961,1.907-4.141,3.819-6.514,5.7ZM65.6,63.893a6.18,6.18,0,0,0,5.15-8.917,88.815,88.815,0,0,0,6.75-5.913q2.1,2.17,3.8,4.3c5.294,6.656,7.44,12.727,5.183,16.637s-8.587,5.082-17,3.825c-1.791-.268-3.671-.647-5.622-1.134A89.076,89.076,0,0,0,65.6,63.893Z"/></svg>