<svg xmlns="http://www.w3.org/2000/svg" xmlns:xlink="http://www.w3.org/1999/xlink" version="1.1" x="0px" y="0px" viewBox="0 0 100 125" style="enable-background:new 0 0 100 100;" xml:space="preserve"><path d="M95.578,18.785c0-2.818-1.428-5.448-4.244-7.821c-2.395-2.018-5.758-3.805-9.994-5.316C72.932,2.65,61.801,1,49.998,1  c-11.801,0-22.93,1.65-31.339,4.648c-4.236,1.51-7.599,3.298-9.994,5.316c-2.816,2.374-4.244,5.006-4.244,7.821V32.93  c0,1.746,0.549,3.419,1.637,5.004c-1.087,1.587-1.637,3.26-1.637,4.996v14.14c0,1.746,0.549,3.421,1.637,5.007  c-1.087,1.587-1.637,3.262-1.637,4.998v14.14c0,2.816,1.428,5.448,4.244,7.819c2.395,2.018,5.758,3.807,9.994,5.318  C27.068,97.348,38.197,99,49.998,99c11.803,0,22.934-1.652,31.343-4.648c4.236-1.51,7.599-3.298,9.994-5.318  c2.816-2.372,4.244-5.004,4.244-7.819v-14.14c0-1.736-0.549-3.411-1.637-4.998c1.087-1.587,1.637-3.262,1.637-5.007V42.93  c0-1.736-0.549-3.409-1.637-4.996c1.087-1.585,1.637-3.258,1.637-5.004V18.785z M79.735,75.708  c-7.906,2.818-18.468,4.37-29.737,4.37c-11.269,0-21.827-1.552-29.733-4.37c-6.927-2.467-11.064-5.697-11.064-8.633  c0-0.486,0.115-0.982,0.343-1.487c2.312,1.734,5.373,3.287,9.115,4.621c8.409,2.999,19.538,4.65,31.339,4.65  c11.801,0,22.932-1.65,31.343-4.65c3.742-1.334,6.803-2.887,9.115-4.621c0.228,0.505,0.343,1.001,0.343,1.487  C90.799,70.012,86.662,73.241,79.735,75.708z M79.735,51.563c-7.906,2.818-18.468,4.37-29.737,4.37  c-11.269,0-21.827-1.552-29.733-4.37c-6.927-2.469-11.064-5.697-11.064-8.633c0-0.486,0.113-0.982,0.341-1.483  c2.312,1.734,5.375,3.287,9.117,4.619c8.409,2.998,19.538,4.648,31.339,4.648c11.803,0,22.934-1.65,31.343-4.648  c3.742-1.332,6.805-2.885,9.117-4.619c0.228,0.503,0.341,0.997,0.341,1.483C90.799,45.866,86.662,49.094,79.735,51.563z   M79.735,27.417c-7.906,2.818-18.468,4.37-29.737,4.37c-11.269,0-21.827-1.552-29.733-4.37c-6.927-2.469-11.064-5.697-11.064-8.633  c0-2.938,4.137-6.166,11.064-8.635c7.906-2.818,18.464-4.37,29.733-4.37c11.269,0,21.831,1.552,29.737,4.37  c6.927,2.469,11.064,5.697,11.064,8.635C90.799,21.721,86.662,24.948,79.735,27.417z"/></svg>